<?xml version="1.0" encoding="utf-8"?>
<!-- Generator: Adobe Illustrator 27.0.0, SVG Export Plug-In . SVG Version: 6.00 Build 0)  -->
<svg version="1.1" id="Layer_1" xmlns="http://www.w3.org/2000/svg" xmlns:xlink="http://www.w3.org/1999/xlink" x="0px" y="0px"
	 viewBox="0 0 600 147" style="enable-background:new 0 0 600 147;" xml:space="preserve">
<style type="text/css">
	.st0{fill-rule:evenodd;clip-rule:evenodd;fill-opacity:0.3;}
	.st1{fill-rule:evenodd;clip-rule:evenodd;fill:#EE4462;}
</style>
<g transform="matrix(1,0,0,1,3.76673,4.35056)">
	<path class="st0" d="M192.7,7.3c0,0-56.5-1.3-94.5,1.4S19.6,24,15.1,59.3s32.7,69.1,94.3,73.1c61.7,4,410.4,12.2,460.9-7.5
		c44.5-17.3,9.7-90.3,9.7-90.3s-11.1-22-79.3-24.2C432.6,8.3,192.7,7.3,192.7,7.3z"/>
</g>
<g transform="matrix(1,0,0,1,-0.233267,0.350562)">
	<path class="st1" d="M181.4,3.1c0,0-56.5-1.3-94.5,1.4S8.3,19.8,3.9,55.1s32.7,69.1,94.3,73.1c61.7,4,410.4,12.2,460.9-7.5
		c44.5-17.3,9.7-90.3,9.7-90.3s-11.1-22-79.3-24.2C421.3,4.1,181.4,3.1,181.4,3.1z"/>
</g>
</svg>
