<?xml version="1.0" encoding="utf-8"?>
<!-- Generator: Adobe Illustrator 24.3.0, SVG Export Plug-In . SVG Version: 6.00 Build 0)  -->
<svg version="1.1" id="Layer_1" xmlns:serif="http://www.serif.com/"
	 xmlns="http://www.w3.org/2000/svg" xmlns:xlink="http://www.w3.org/1999/xlink" x="0px" y="0px" viewBox="0 0 595.3 292.1"
	 style="enable-background:new 0 0 595.3 292.1;" xml:space="preserve">
<style type="text/css">
	.st0{fill-rule:evenodd;clip-rule:evenodd;fill-opacity:0.3;}
	.st1{fill-rule:evenodd;clip-rule:evenodd;fill:#df70a6;}
</style>
<g transform="matrix(1,0,0,1,3.76673,4.35056)">
	<path class="st0" d="M186.5,28.8c0,0-55.1-2.4-92.2,2.6s-76.7,27.7-81,91.6s31.9,125.2,92,132.4c60.2,7.2,400.4,22.1,449.7-13.5
		c43.4-31.4,9.5-163.5,9.5-163.5s-10.8-39.8-77.4-43.8C420.6,30.7,186.5,28.8,186.5,28.8z"/>
</g>
<g transform="matrix(1,0,0,1,-0.233267,0.350562)">
	<path class="st1" d="M175.6,17.9c0,0-55.1-2.4-92.2,2.6s-76.7,27.7-81,91.6s31.9,125.2,92,132.4c60.2,7.2,400.4,22.1,449.7-13.5
		c43.4-31.4,9.5-163.5,9.5-163.5s-10.8-39.8-77.4-43.8C409.7,19.8,175.6,17.9,175.6,17.9z"/>
</g>
</svg>
