<svg width="640" height="575" viewBox="0 0 640 575" fill="none" xmlns="http://www.w3.org/2000/svg">
<ellipse cx="320" cy="287.5" rx="320" ry="287.5" fill="#F38E3D"/>
<path d="M185.052 343.999C168.014 320.15 157.127 293.042 155.282 266.059C153.172 235.334 162.815 204.755 188.392 179.308C189.083 178.625 189.773 177.952 190.489 177.279C191.745 176.07 193.138 174.881 194.545 173.767C198.151 170.706 202.595 168.429 207.49 167.132C216.166 165.029 225.659 167.531 232.954 171.958C240.249 176.385 245.698 182.579 250.759 188.783C259.033 199.014 266.755 210.023 268.89 222.253C270.748 232.926 267.483 244.755 258.518 252.232C257.223 253.363 255.802 254.387 254.274 255.292C254.085 255.407 253.888 255.512 253.684 255.607C250.018 257.626 245.887 259.035 242.258 261.117C232.401 266.795 227.379 277.143 227.253 287.164C227.128 297.185 231.347 306.922 236.859 315.807C250.131 337.195 271.037 354.787 294.542 368.699C305.164 375.008 319.014 380.75 330.615 375.807C336.755 373.2 340.66 368.205 344.842 363.547C345.758 362.495 346.687 361.538 347.667 360.581C348.244 360.014 348.834 359.477 349.45 358.962C370.393 341.275 409.719 352.59 429.382 365.545C443.658 374.935 467.502 392.695 462.744 410.182C462.033 412.373 460.85 414.436 459.253 416.27C454.788 421.756 449.126 426.487 442.566 430.214C440.682 431.328 438.736 432.317 436.752 433.368C425.326 439.015 412.381 442.916 400.227 447.448C317.13 478.374 223.223 397.437 185.052 343.999Z" fill="white"/>
<path d="M204.728 353.084C187.689 329.235 176.803 302.137 174.957 275.145C172.86 244.419 182.491 213.851 208.08 188.404C213.316 183.199 219.381 178.067 227.178 176.217C230.835 175.391 234.669 175.269 238.391 175.859C236.696 174.457 234.879 173.164 232.954 171.99C225.659 167.573 216.166 165.123 207.502 167.163C199.68 169.014 193.691 174.145 188.405 179.35C162.79 204.787 153.172 235.365 155.282 266.091C157.127 293.073 168.013 320.182 185.052 344.03C209.147 377.742 255.53 422.485 307.261 443.011C263.603 420.182 225.734 382.464 204.728 353.084Z" fill="#FBD5B7"/>
<path d="M347.616 360.529C342.154 365.86 338.036 372.579 330.565 375.755C324.689 378.258 318.247 378.005 311.932 376.344C312.673 376.796 313.413 377.259 314.167 377.7C324.789 384.009 338.639 389.751 350.241 384.819C357.774 381.665 361.842 374.914 367.292 369.583C381.807 355.408 406.705 357.153 427.184 364.136C406.279 351.412 367.279 341.254 347.616 360.529Z" fill="#FBD5B7"/>
<path d="M436.702 433.295C435.156 427.591 432.961 422.024 430.148 416.67C419.002 395.054 398.106 378.004 372.013 369.236C362.998 366.155 353.995 364.693 344.791 363.494C345.708 362.443 346.637 361.486 347.616 360.529C348.194 359.961 348.784 359.425 349.399 358.909C372.691 361.328 396.435 372.632 411.866 385.555C421.926 393.976 430.017 403.898 435.723 414.809C438.398 419.792 440.667 424.921 442.516 430.161C440.632 431.276 438.686 432.306 436.702 433.295Z" fill="#F38E3D"/>
<path d="M253.634 255.555C252.767 252.4 251.851 249.245 250.834 246.186C247.487 235.421 242.747 224.994 236.696 215.092C230.84 205.656 223.113 197.122 213.843 189.855C206.624 184.314 198.776 180.696 190.476 177.3C191.732 176.091 193.126 174.902 194.532 173.788C213.555 180.097 229.689 195.87 239.207 209.54C246.59 220.055 251.763 231.622 255.693 243.399C256.697 246.354 257.627 249.33 258.506 252.316C257.21 253.417 255.793 254.413 254.274 255.292C254.067 255.39 253.853 255.478 253.634 255.555Z" fill="#F38E3D"/>
<path d="M399.787 436.754C400.983 436.531 402.051 435.97 402.813 435.166L403.579 434.115C403.992 433.333 404.144 432.471 404.019 431.623V430.35C403.925 429.645 403.65 428.966 403.213 428.358C402.776 427.75 402.188 427.228 401.488 426.829C400.787 426.429 399.993 426.161 399.157 426.043C398.322 425.925 397.466 425.96 396.648 426.144C395.833 426.322 395.073 426.642 394.417 427.083C393.76 427.525 393.223 428.077 392.84 428.705C392.457 429.333 392.236 430.021 392.194 430.725C392.151 431.429 392.287 432.133 392.592 432.79L393.12 433.936C393.632 435.005 394.591 435.88 395.818 436.399C397.046 436.918 398.457 437.044 399.787 436.754Z" fill="#F38E3D"/>
<path d="M234.95 320.129C233.042 314.261 228.672 308.804 225.897 303.189C222.696 297.074 220.418 290.649 219.117 284.062C216.87 271.328 220.222 259.035 230.166 249.119C231.61 247.689 229.162 245.449 227.404 246.711C215.79 255.06 211.847 268.31 212.864 280.728C213.68 288.028 215.796 295.184 219.142 301.959C222.219 308.615 225.609 316.428 230.945 322.043C231.31 322.366 231.795 322.578 232.321 322.643C232.847 322.709 233.384 322.624 233.845 322.404C234.307 322.183 234.667 321.839 234.868 321.426C235.068 321.014 235.097 320.557 234.95 320.129Z" fill="#F38E3D"/>
<path d="M322.535 181.993C319.391 181.25 318.149 185.895 321.024 187.049C347.311 197.651 370.358 211.817 388.457 233.121C406.557 254.426 416.607 278.303 422.428 304.525C422.615 305.408 423.149 306.194 423.925 306.723C424.7 307.252 425.658 307.486 426.606 307.378C427.555 307.27 428.424 306.827 429.038 306.139C429.653 305.451 429.967 304.569 429.919 303.669C427.168 249.222 378.402 195.298 322.535 181.993Z" fill="white"/>
<path d="M395.584 279.873C396.066 273.299 390.647 266.667 387.121 261.487C382.577 254.805 377.196 248.668 371.076 243.187C359.655 232.957 345.574 224.125 329.592 220.385C328.203 220.06 326.813 222.018 328.233 222.671C342.399 229.168 355.604 236.274 366.602 246.679C371.663 251.426 376.185 256.635 380.109 262.241C382.458 265.618 384.588 269.128 386.49 272.756C388.065 275.754 388.976 278.973 391.63 281.198C392.82 282.185 395.44 281.831 395.584 279.873Z" fill="white"/>
<path d="M320.78 148.808C324.611 154.935 336.336 157.156 343.199 160.457C352.412 164.906 361.201 169.917 369.509 175.458C385.745 186.315 400.184 198.998 412.528 213.246C437.48 241.916 450.556 275.283 459.51 311.496C459.681 311.852 459.989 312.132 460.388 312.294C460.787 312.456 461.254 312.491 461.719 312.393C462.183 312.295 462.619 312.07 462.96 311.753C463.302 311.435 463.529 311.042 463.608 310.634C462.747 272.383 444.253 235.799 420.084 207.107C401.848 185.485 378.853 167.446 352.178 153.833C344.847 150.064 333.395 142.108 323.887 143.836C323.277 143.936 322.684 144.164 322.162 144.502C321.64 144.839 321.205 145.274 320.896 145.768C320.588 146.261 320.415 146.798 320.395 147.329C320.375 147.86 320.507 148.368 320.78 148.808Z" fill="white"/>
</svg>
